<svg xmlns="http://www.w3.org/2000/svg" viewBox="0 0 75 75"><path fill="#d9d9de" d="M0 0h75v75H0z"/><path fill="#888" d="M33.7 47.4v-.26q.04-4.16.87-6.62t2.35-4q1.52-1.51 3.66-2.8 1.92-1.15 3.22-3.03 1.31-1.87 1.31-4.47 0-2.13-1-3.7-1-1.57-2.68-2.42-1.68-.85-3.73-.85-1.79 0-3.44.74-1.66.74-2.77 2.33-1.1 1.59-1.29 4.16h-5.49q.18-3.7 1.92-6.34 1.76-2.64 4.64-4.03 2.9-1.39 6.43-1.39 3.83 0 6.67 1.52 2.85 1.52 4.4 4.18 1.57 2.66 1.57 6.06 0 3.62-1.6 6.19t-4.5 4.31q-1.92 1.2-3.07 2.53-1.15 1.31-1.68 3.12-.52 1.81-.56 4.51v.26zm2.79 12.9q-1.61 0-2.77-1.15-1.15-1.15-1.15-2.77t1.15-2.77q1.15-1.15 2.77-1.15t2.77 1.15q1.15 1.15 1.15 2.77t-1.15 2.77q-1.15 1.15-2.77 1.15z" aria-label="?"/></svg>
