<svg width="600" height="600" viewBox="0 0 600 600" fill="none" xmlns="http://www.w3.org/2000/svg">
<path fill-rule="evenodd" clip-rule="evenodd" d="M230.01 52.7799C368.13 16.1999 510.1 97.2299 547.11 233.76C557.43 271.82 558.5 310.18 551.69 346.5L508.11 331C511.29 310.15 511.36 288.58 507.92 266.91L496.57 224.38C458.13 123.67 347.93 66.2598 240.54 94.7098C163.94 115 108.19 173.83 88.9299 244.44H44.23C64.57 154.39 133.61 78.3199 230.01 52.7799ZM364.04 547.22C225.92 583.8 83.9399 502.77 46.9399 366.24C45.8599 362.26 44.88 358.28 44 354.29H88.9299C92.3199 366.8 96.7799 378.75 102.18 390.07L113.72 408.88L198.84 335.66L169.1 279.33L230.77 199.18L317.52 169.45L347.18 197.77L311.17 243.89L276.73 259.36L254.34 288.47L271.12 321.51C271.12 321.51 299.8 345.15 299.85 345.16L334.56 331.39L356.67 300.57L410.28 276.37L431.44 311.36L382.49 388.1L289.82 429.91L240.73 387.49L157.83 461.5C209.63 504.59 281.18 522.79 351.53 504.16C401.58 490.9 442.72 461.2 470.61 422.5L514.43 439C480.82 490.4 428.55 530.13 364.04 547.22Z" fill="#5DA426"/>
</svg>
