<svg width="50" height="50" viewBox="0 0 600 600" fill="none" xmlns="http://www.w3.org/2000/svg">
<path fill-rule="evenodd" clip-rule="evenodd" d="M547.16 366.56C558.55 324.47 559.32 278.91 547.2 233.76C510.57 97.2299 370.04 16.1999 233.33 52.7799C127.81 81.0199 55.3899 171.07 44.6899 273.47H87.99C98.29 190.33 157.74 117.73 243.75 94.7098C350.05 66.2598 459.13 123.67 497.17 224.38L455.03 235.65C435.64 188.8 396.57 154.45 350.3 139.82L342.56 183.66C379.09 197.13 408.72 227.5 419.56 267.91C435.36 326.8 405.94 387.14 352.56 412.17L364.09 455.16C434.25 426.21 476.4 353.3 466.43 278.14L508.41 266.91C512.91 295.62 511.35 324.16 504.55 351.07L547.16 366.56Z" fill="#5DA426"/>
<path d="M365.99 547.22C229.27 583.8 88.7501 502.77 52.1101 366.24C47.8401 350.31 45.17 334.33 44 318.46H87.27C88.36 330.37 90.4699 342.35 93.6799 354.29C97.0399 366.8 101.45 378.75 106.79 390.07L145.38 366.92C142.13 359.42 139.39 351.6 137.21 343.47C113.17 253.87 166.41 161.77 256.13 137.76C273.13 133.21 290.23 131.44 306.93 132.15L299.19 176C288.73 176.05 278.11 177.42 267.53 180.25C201.31 197.98 162.01 265.95 179.75 332.09C180.85 336.16 182.13 340.13 183.59 343.99L232.94 314.38L218.07 274.95L264.67 227.08L323.57 214.39L340.62 235.38L313.47 262.88L289.79 270.33L272.87 287.72L281.16 310.79C281.16 310.79 297.95 328.63 297.98 328.64L321.7 322.33L338.58 303.79L375.44 292.12L386.42 316.82L348.39 363.45L284.66 383.63L256.08 351.81L206.26 381.7C231.8 410.78 270.2 426.93 310.01 423.56L321.54 466.55C262.13 474.41 204.1 449.82 168.05 404.64L129.64 427.68C180.25 494.17 267.84 527.11 353.61 504.16C415.35 487.64 463.4 445.56 489.42 392.38L532.06 407.88C501.17 474.16 442.22 526.82 365.99 547.22Z" fill="#5DA426"/>
</svg>
